<?xml version="1.0" encoding="utf-8"?>
<!-- Generator: Adobe Illustrator 21.0.0, SVG Export Plug-In . SVG Version: 6.00 Build 0)  -->
<svg version="1.1" id="Capa_1" xmlns="http://www.w3.org/2000/svg" xmlns:xlink="http://www.w3.org/1999/xlink" x="0px" y="0px"
	 viewBox="0 0 469.3 469.3" style="enable-background:new 0 0 469.3 469.3;" xml:space="preserve">
<style type="text/css">
	.st0{fill:#FFFDFD;}
</style>
<g>
	<g>
		<g>
			<path class="st0" d="M253.2,300.3L253.2,300.3L199,246.7l0.6-0.6c37.1-41.4,63.6-89,79.1-139.3h62.5V64H192V21.3h-42.7V64H0v42.5
				h238.3c-14.4,41.2-36.9,80.2-67.6,114.3c-19.8-22.1-36.3-46.1-49.3-71.5H78.7c15.6,34.8,36.9,67.6,63.6,97.3L33.8,353.8L64,384
				l106.7-106.7l66.3,66.3L253.2,300.3z"/>
			<path class="st0" d="M373.3,192h-42.7l-96,256h42.7l24-64h101.3l24,64h42.7L373.3,192z M317.3,341.3l34.7-92.5l34.7,92.5H317.3z"
				/>
		</g>
	</g>
</g>
</svg>
